<?xml version="1.0" encoding="UTF-8"?>
<!DOCTYPE svg PUBLIC "-//W3C//DTD SVG 1.1//EN" "http://www.w3.org/Graphics/SVG/1.1/DTD/svg11.dtd">
<!-- Creator: CorelDRAW X8 -->
<svg xmlns="http://www.w3.org/2000/svg" xml:space="preserve" width="420mm" height="297mm" version="1.1" style="shape-rendering:geometricPrecision; text-rendering:geometricPrecision; image-rendering:optimizeQuality; fill-rule:evenodd; clip-rule:evenodd"
viewBox="0 0 42000 29700"
 xmlns:xlink="http://www.w3.org/1999/xlink">
 <defs>
  <style type="text/css">
   <![CDATA[
    .fil11 {fill:#FEFEFE}
    .fil30 {fill:#2B2A29}
    .fil34 {fill:#142C46}
    .fil15 {fill:#352F0B}
    .fil21 {fill:#359562}
    .fil32 {fill:#42507D}
    .fil18 {fill:#4C4C4C}
    .fil29 {fill:#4D5256}
    .fil33 {fill:#4E5979}
    .fil8 {fill:#558728}
    .fil25 {fill:#646464}
    .fil22 {fill:#646464}
    .fil24 {fill:#656565}
    .fil7 {fill:#659934}
    .fil3 {fill:#673434}
    .fil31 {fill:#6A78A5}
    .fil6 {fill:#73AB3C}
    .fil9 {fill:#73AB3C}
    .fil14 {fill:gray}
    .fil5 {fill:#86B757}
    .fil35 {fill:#97A4C7}
    .fil0 {fill:#ACD0CE}
    .fil10 {fill:#BAD8D6}
    .fil13 {fill:#BEBB6E}
    .fil2 {fill:#C1ECEC}
    .fil17 {fill:#C6B37B}
    .fil27 {fill:#D64445}
    .fil12 {fill:#D8C986}
    .fil20 {fill:#DAA834}
    .fil1 {fill:#E1FAF9}
    .fil16 {fill:#EADFA1}
    .fil23 {fill:#F1D332}
    .fil19 {fill:#F3918C}
    .fil28 {fill:#F96465}
    .fil26 {fill:#F96465}
    .fil4 {fill:#FDFDFE}
   ]]>
  </style>
 </defs>
 <g id="Слой_x0020_1">
  <metadata id="CorelCorpID_0Corel-Layer"/>
  <path class="fil0" d="M34299 28274l9601 0c282,0 513,231 513,514l0 486 -10628 0 0 -486c0,-283 232,-514 514,-514z"/>
  <polygon class="fil1" points="9858,22337 10816,21474 11774,22337 11734,22373 11734,28274 9898,28274 9898,22373 "/>
  <rect class="fil2" x="5634" y="20772" width="3909" height="7510"/>
  <path class="fil1" d="M5685 14370l32874 0c-78,94 -125,214 -125,345l0 0c0,297 243,540 540,540l1285 0c-155,95 -259,266 -259,460l0 0c0,297 243,537 540,541l1067 13 21 2170c3,297 -540,243 -540,540l0 0c0,297 243,540 540,540l-36175 73c176,-90 298,-273 298,-483l0 0c0,-222 -137,-415 -330,-497 70,-91 112,-206 112,-329l0 0c0,-124 -42,-239 -113,-330l5186 0c297,0 540,-244 540,-541l0 0c0,-297 -243,-540 -540,-540l-4977 0c-97,-94 -230,-152 -375,-152l-33 0c5,-30 8,-60 8,-91l0 0c0,-297 -243,-540 -541,-540l-2234 0c140,-98 232,-260 232,-443l0 0c0,-4 0,-8 0,-12l0 -4c-1,-3 -1,-7 -1,-10l0 -2c0,-4 0,-8 -1,-12l0 -3c0,-3 -1,-7 -1,-10l0 -2c0,-4 -1,-8 -1,-12l-1 -4 -1 -8 -1 -4c0,-4 -1,-8 -2,-12l0 0 0 -1c0,-3 -1,-7 -2,-11l-1 -3c0,-3 -1,-6 -2,-10l0 -2c-1,-4 -2,-7 -3,-11l-1 -4 -2 -7 -1 -5c-1,-3 -2,-7 -3,-10l-1 -3c-1,-2 -2,-5 -3,-8l-1 -4c-1,-3 -2,-6 -3,-9l-3 -6 -2 -5 -2 -6 -3 -7 -1 -4 -4 -9 -2 -3 -3 -8 -2 -3 0 -1c-2,-3 -3,-5 -5,-8l0 0 -2 -6 -3 -4 -3 -5 -4 -8 -3 -5 -3 -6 -3 -4 -4 -6 -4 -6 -3 -6 -3 -4 -4 -6 -3 -4 0 0c-2,-2 -4,-5 -5,-7l-1 -1 -4 -5 -2 -3 -4 -5 0 -1 -6 -7 -5 -5 -2 -2 -5 -6 0 -1c-4,-4 -7,-8 -11,-12l-1 -1 -6 -6 -2 -2c-3,-3 -7,-7 -11,-11l0 0 -6 -6 -1 -1c-7,-6 -13,-11 -19,-17l-1 -1c-7,-5 -14,-11 -21,-16l0 -1 -7 -5 -2 -1c-6,-4 -13,-9 -20,-14l-2 -1c-7,-5 -15,-10 -22,-14l0 0c-8,-4 -15,-9 -23,-13l-1 0 2816 0c297,0 540,-243 540,-540l0 0c0,-93 -24,-181 -66,-258zm25239 3111l8487 0c297,0 541,243 541,541l0 0c0,297 -244,540 -541,540l-8487 0c-297,0 -540,-243 -540,-540l0 0c0,-298 243,-541 540,-541zm-3481 -2221l8487 0c297,0 541,243 541,540l0 0c0,297 -244,540 -541,540l-8487 0c-297,0 -540,-243 -540,-540l0 0c0,-297 243,-540 540,-540zm-11792 2l8488 0c297,0 540,243 540,540l0 0c0,298 -243,541 -540,541l-8488 0c-297,0 -540,-243 -540,-541l0 0c0,-297 243,-540 540,-540z"/>
  <path class="fil3" d="M7098 28287c0,0 12,-2283 36,-6850 -271,-73 -549,-185 -832,-337 -729,-481 -1151,-1125 -1266,-1932 0,0 -15,-679 -43,-2037 0,0 252,4 757,10 6,1093 10,1639 10,1639 22,737 349,1299 982,1685 583,334 1249,324 1830,-10 632,-386 960,-947 982,-1684 0,0 3,-547 10,-1639 504,-7 756,-10 756,-10 -28,1358 -42,2037 -42,2037 -116,807 -538,1451 -1266,1932 -283,151 -561,264 -833,337 24,4566 37,6849 37,6849 -413,0 -703,10 -1118,10z"/>
  <path class="fil4" d="M19393 24056c-107,269 -30,2822 -50,3380l339 -26 -33 -3366 -256 12z"/>
  <path class="fil5" d="M3147 19515l596 -80c-48,-229 -9,-158 -300,-176 -403,-67 -488,-25 -503,-460 -16,-433 -49,-518 362,-513l466 -76 -113 -163c-506,-63 -957,-19 -1042,491 -39,234 -23,467 92,670 197,350 167,175 442,307z"/>
  <path class="fil4" d="M19348 23965l300 26 40 -1804c-23,-262 -54,-259 -330,-227l-10 2005z"/>
  <path class="fil6" d="M1330 18339l-55 388c92,-55 185,-128 308,-177l4 632 419 55c53,-296 73,-646 -53,-889 -317,-60 -439,2 -623,-9z"/>
  <path class="fil6" d="M6675 15161c-99,439 -13,568 380,671l6 -864c-227,67 -187,37 -386,193z"/>
  <circle class="fil7" cx="9856" cy="13498" r="3752"/>
  <path class="fil8" d="M9826 17254c-2020,-59 -3639,-1716 -3639,-3750 0,-245 23,-484 68,-715 2005,523 3498,2314 3571,4465z"/>
  <circle class="fil7" cx="4961" cy="17414" r="3752"/>
  <circle class="fil9" cx="2043" cy="19285" r="1462"/>
  <circle class="fil9" cx="12399" cy="15674" r="1462"/>
  <path class="fil7" d="M11191 26022l0 2260 -2123 0 0 -2383c0,-521 477,-942 1066,-942 588,0 1066,421 1066,942 0,41 -3,83 -9,123z"/>
  <path class="fil8" d="M9601 27019l0 1263 -1186 0 0 -1332c0,-290 267,-526 595,-526 329,0 596,236 596,526 0,24 -2,47 -5,69z"/>
  <polygon class="fil2" points="13753,17333 16860,17333 16860,28315 13753,28315 13753,18236 16432,18236 16432,17801 13753,17801 "/>
  <rect class="fil10" x="15511" y="15457" width="3909" height="12858"/>
  <polygon class="fil2" points="12173,22959 13578,24726 13578,28274 11742,28274 11742,22965 "/>
  <path class="fil11" d="M16073 15869l0 0c287,0 522,235 522,523l0 7669 -522 0 0 -8192z"/>
  <path class="fil11" d="M17171 15891l0 0c287,0 522,235 522,522l0 5483 -522 0 0 -6005z"/>
  <path class="fil11" d="M18301 15869l0 0c287,0 522,235 522,523l0 3573 -522 0 0 -4096z"/>
  <rect class="fil10" x="15833" y="14609" width="2807" height="609"/>
  <polygon class="fil10" points="16434,12169 16705,12169 16705,13786 17704,13786 17704,14395 15833,14395 15833,13786 16434,13786 "/>
  <polygon class="fil2" points="22543,19503 23961,18225 25380,19503 25320,19557 25320,28291 22602,28291 22602,19557 "/>
  <path class="fil2" d="M19954 20879l-2023 2464 0 4945 2643 0 0 -7401 -620 -8zm-116 691l429 0 0 6287 -429 0 0 -6287z"/>
  <polygon class="fil1" points="31474,23631 32785,22962 34096,23631 34041,23659 34041,28230 31529,28230 31529,23659 "/>
  <polygon class="fil2" points="33421,20903 34840,19829 36258,20903 36199,20948 36199,28291 33481,28291 33481,20948 "/>
  <path class="fil7" d="M31794 22795l0 4767 -4479 0 0 -5028c0,-1097 1007,-1987 2249,-1987 1242,0 2249,890 2249,1987 0,88 -7,175 -19,261z"/>
  <path class="fil9" d="M28918 24986l0 2587 -2429 0 0 -2728c0,-595 546,-1078 1220,-1078 673,0 1220,483 1220,1078 0,48 -4,95 -11,141z"/>
  <path class="fil7" d="M32680 24965l0 2586 -2430 0 0 -2728c0,-595 546,-1078 1220,-1078 674,0 1220,483 1220,1078 0,48 -3,95 -10,142z"/>
  <path class="fil12" d="M1312 28265l33450 0c283,0 514,232 514,514l0 487 -34478 0 0 -487c0,-282 231,-514 514,-514z"/>
  <path class="fil13" d="M26344 27335l6496 0c113,0 206,93 206,206l0 795 -6908 0 0 -795c0,-113 93,-206 206,-206z"/>
  <path class="fil12" d="M26344 27335l4048 0c113,0 206,93 206,206l0 795 -4460 0 0 -795c0,-113 93,-206 206,-206z"/>
  <polygon class="fil2" points="39192,24022 41250,23408 43308,24022 43221,24048 43221,28248 39278,28248 39278,24048 "/>
  <path class="fil14" d="M-3793 29054l49223 0c446,0 811,365 811,811l0 0c0,445 -365,810 -811,810l-873 0 0 0c0,445 -365,810 -810,810l-8502 0c-445,0 -810,-365 -810,-810l0 0 -2500 0c-4,442 -367,804 -810,804l-11487 0c-444,0 -807,-362 -810,-804l-9986 0c-3,443 -367,804 -810,804l-8502 0c-444,0 -807,-361 -810,-804l-2513 0c-446,0 -811,-365 -811,-810l0 0c0,-446 365,-811 811,-811z"/>
  <path class="fil15" d="M10741 28496l2962 0c205,0 374,169 374,374l0 190 -3710 0 0 -190c0,-205 169,-374 374,-374z"/>
  <rect class="fil12" x="10851" y="28473" width="196" height="587"/>
  <rect class="fil12" x="11667" y="28474" width="196" height="587"/>
  <rect class="fil12" x="12575" y="28474" width="196" height="587"/>
  <rect class="fil12" x="13369" y="28475" width="196" height="587"/>
  <ellipse class="fil16" cx="16104" cy="28789" rx="272" ry="179"/>
  <ellipse class="fil16" cx="19748" cy="28561" rx="272" ry="179"/>
  <ellipse class="fil16" cx="25470" cy="28767" rx="272" ry="179"/>
  <ellipse class="fil16" cx="17943" cy="28648" rx="179" ry="118"/>
  <ellipse class="fil16" cx="22291" cy="28835" rx="177" ry="117"/>
  <ellipse class="fil16" cx="6673" cy="28767" rx="272" ry="179"/>
  <ellipse class="fil16" cx="8479" cy="28640" rx="136" ry="90"/>
  <ellipse class="fil16" cx="9077" cy="28833" rx="136" ry="90"/>
  <ellipse class="fil16" cx="9942" cy="28441" rx="136" ry="90"/>
  <ellipse class="fil16" cx="1424" cy="28621" rx="136" ry="90"/>
  <ellipse class="fil16" cx="28918" cy="28770" rx="136" ry="90"/>
  <ellipse class="fil16" cx="32922" cy="28852" rx="237" ry="156"/>
  <ellipse class="fil16" cx="30129" cy="28704" rx="237" ry="156"/>
  <ellipse class="fil16" cx="4791" cy="28596" rx="272" ry="179"/>
  <ellipse class="fil16" cx="5879" cy="28569" rx="171" ry="113"/>
  <ellipse class="fil17" cx="24130" cy="28784" rx="194" ry="128"/>
  <ellipse class="fil17" cx="21203" cy="28596" rx="194" ry="128"/>
  <ellipse class="fil17" cx="15161" cy="28864" rx="194" ry="128"/>
  <ellipse class="fil17" cx="9678" cy="28803" rx="194" ry="128"/>
  <ellipse class="fil17" cx="3626" cy="28567" rx="194" ry="128"/>
  <ellipse class="fil17" cx="26999" cy="28308" rx="194" ry="128"/>
  <ellipse class="fil17" cx="29503" cy="28378" rx="316" ry="209"/>
  <ellipse class="fil17" cx="28092" cy="28819" rx="316" ry="209"/>
  <ellipse class="fil16" cx="31638" cy="28612" rx="272" ry="179"/>
  <g id="_2875453757040">
   <g>
    <rect class="fil18" x="31209" y="10578" width="2328" height="6288" rx="308" ry="308"/>
    <rect class="fil18" x="32147" y="10104" width="457" height="18226" rx="61" ry="894"/>
    <rect class="fil18" x="31694" y="21521" width="1360" height="1740" rx="180" ry="85"/>
    <circle class="fil19" cx="32373" cy="11791" r="650"/>
    <circle class="fil20" cx="32372" cy="13637" r="650"/>
    <circle class="fil21" cx="32372" cy="15590" r="650"/>
    <path class="fil22" d="M31598 15500c-10,-42 -14,-85 -14,-130 4,-359 361,-647 796,-643 436,3 786,297 781,656 0,60 -11,119 -31,175 -69,-298 -385,-524 -766,-527 -362,-3 -670,196 -766,469z"/>
    <path class="fil22" d="M31600 13509c-10,-42 -15,-86 -14,-130 4,-359 361,-647 796,-644 436,4 785,298 781,657 -1,60 -11,119 -31,174 -69,-297 -385,-523 -767,-526 -362,-3 -669,196 -765,469z"/>
    <path class="fil22" d="M31600 11692c-10,-42 -15,-85 -14,-130 4,-359 361,-647 796,-643 436,3 785,297 781,656 -1,61 -11,119 -31,175 -69,-298 -385,-524 -767,-527 -362,-3 -669,196 -765,469z"/>
   </g>
   <circle class="fil23" cx="32361" cy="22408" r="350"/>
  </g>
  <rect class="fil24" x="35918" y="29878" width="6312" height="1010" rx="194" ry="1038"/>
  <ellipse class="fil25" cx="25866" cy="30119" rx="316" ry="209"/>
  <ellipse class="fil25" cx="21872" cy="30427" rx="316" ry="209"/>
  <ellipse class="fil25" cx="30356" cy="30681" rx="316" ry="209"/>
  <ellipse class="fil25" cx="16433" cy="29539" rx="316" ry="209"/>
  <ellipse class="fil25" cx="6839" cy="30573" rx="316" ry="209"/>
  <ellipse class="fil25" cx="12703" cy="29920" rx="316" ry="209"/>
  <ellipse class="fil25" cx="-3107" cy="29992" rx="316" ry="209"/>
  <ellipse class="fil25" cx="43798" cy="30573" rx="316" ry="209"/>
  <ellipse class="fil25" cx="21307" cy="30101" rx="165" ry="109"/>
  <ellipse class="fil25" cx="16774" cy="29865" rx="165" ry="109"/>
  <ellipse class="fil25" cx="25667" cy="30944" rx="165" ry="109"/>
  <ellipse class="fil25" cx="13268" cy="29603" rx="165" ry="109"/>
  <ellipse class="fil25" cx="26610" cy="29838" rx="165" ry="109"/>
  <ellipse class="fil25" cx="2914" cy="30128" rx="165" ry="109"/>
  <g id="_2875453813168">
   <rect class="fil26" x="13089" y="25391" width="2869" height="833"/>
   <rect class="fil27" x="13089" y="25916" width="2869" height="308"/>
   <path class="fil28" d="M14532 23251l0 0c659,0 1198,539 1198,1197l0 3843 -2395 0 0 -3843c0,-658 539,-1197 1197,-1197z"/>
   <rect class="fil26" x="13105" y="24430" width="2869" height="506"/>
   <rect class="fil26" x="13101" y="27784" width="2869" height="506"/>
   <rect class="fil27" x="12762" y="25254" width="336" height="1151"/>
   <rect class="fil26" x="15945" y="25241" width="336" height="1151"/>
   <rect class="fil27" x="13101" y="27784" width="2104" height="506"/>
   <rect class="fil27" x="13105" y="24430" width="2067" height="506"/>
   <rect class="fil27" x="14311" y="25222" width="402" height="2230" rx="744" ry="822"/>
   <rect class="fil27" x="15008" y="25222" width="402" height="2230" rx="744" ry="822"/>
   <rect class="fil27" x="13655" y="25213" width="402" height="2230" rx="744" ry="822"/>
  </g>
  <g id="_2875453810928">
   <rect class="fil29" x="32277" y="9871" width="83.6157" height="304.316"/>
   <rect class="fil29" x="32459" y="9873" width="83.6157" height="304.316"/>
   <polygon class="fil30" points="33091,8727 33114,8429 33427,8569 "/>
   <path class="fil31" d="M32773 8191c200,0 363,162 363,362 0,148 -89,275 -216,332 83,106 133,239 133,384 0,343 -278,621 -621,621 -343,0 -621,-278 -621,-621 0,-340 273,-616 612,-621 -8,-30 -13,-62 -13,-95 0,-200 163,-362 363,-362z"/>
   <polygon class="fil31" points="31407,8859 31410,8856 31890,9286 31410,9715 31410,9715 "/>
   <polygon class="fil32" points="31410,9011 31412,9009 31723,9288 31412,9567 31412,9567 "/>
   <polygon class="fil33" points="31411,9158 31412,9157 31568,9297 31412,9437 31412,9437 "/>
   <circle class="fil34" cx="32884" cy="8473" r="66"/>
   <path class="fil35" d="M32436 9332l-435 0c0,240 195,435 435,435 241,0 436,-195 436,-435l-436 0z"/>
  </g>
  <g id="_2875231226320">
   <rect class="fil29" transform="matrix(1.02785 -0.00215627 0.00184033 1.20431 19516.8 27908.5)" width="81.35" height="296.07"/>
   <rect class="fil29" transform="matrix(1.02785 -0.00215627 0.00184033 1.20431 19699.1 27911.2)" width="81.35" height="296.07"/>
   <polygon class="fil30" points="20279,27965 20578,27969 20457,28290 "/>
   <path class="fil31" d="M20795 27668c12,172 -140,320 -340,331 -147,8 -280,-62 -344,-168 -100,77 -230,127 -375,135 -343,18 -637,-206 -658,-501 -21,-295 239,-548 581,-566 340,-18 632,202 658,493 29,-9 61,-15 94,-16 200,-11 372,120 384,292z"/>
   <polygon class="fil31" points="18636,27026 18664,27006 19137,27357 18652,27696 18652,27696 "/>
   <polygon class="fil32" points="18645,27142 18663,27129 18970,27356 18655,27576 18655,27576 "/>
   <polygon class="fil33" points="18652,27254 18661,27248 18815,27362 18657,27472 18657,27472 "/>
   <circle class="fil34" transform="matrix(0.0629989 1.02592 -1.02592 0.0629989 20519.9 27742.7)" r="64"/>
   <path class="fil35" d="M19635 27415l-26 -368c-240,13 -423,188 -408,391 15,203 221,357 461,345l-27 -368z"/>
  </g>
  <g id="_2839971887600">
   <rect class="fil29" transform="matrix(-1.02785 -0.00215627 -0.00184033 1.20431 6316.27 27924)" width="81.35" height="296.07"/>
   <rect class="fil29" transform="matrix(-1.02785 -0.00215627 -0.00184033 1.20431 6133.93 27926.7)" width="81.35" height="296.07"/>
   <polygon class="fil30" points="5554,27980 5255,27985 5376,28306 "/>
   <path class="fil31" d="M5038 27684c-12,172 140,320 340,330 147,8 280,-61 344,-168 100,78 231,127 375,135 343,18 637,-206 658,-501 21,-294 -239,-548 -581,-566 -340,-18 -632,202 -658,493 -29,-9 -61,-14 -94,-16 -200,-10 -372,121 -384,293z"/>
   <polygon class="fil31" points="7197,27042 7169,27022 6696,27372 7181,27711 7181,27711 "/>
   <polygon class="fil32" points="7188,27157 7170,27145 6863,27372 7178,27592 7178,27592 "/>
   <polygon class="fil33" points="7181,27270 7172,27263 7018,27377 7176,27488 7176,27488 "/>
   <circle class="fil34" transform="matrix(-0.0629989 1.02592 1.02592 0.0629989 5313.14 27758.2)" r="64"/>
   <path class="fil35" d="M6198 27431l26 -368c240,12 423,187 408,390 -15,203 -221,358 -461,345l27 -367z"/>
  </g>
 </g>
</svg>
