<?xml version="1.0" encoding="UTF-8"?>
<!DOCTYPE svg PUBLIC "-//W3C//DTD SVG 1.1//EN" "http://www.w3.org/Graphics/SVG/1.1/DTD/svg11.dtd">
<!-- Creator: CorelDRAW X8 -->
<svg xmlns="http://www.w3.org/2000/svg" xml:space="preserve" width="420mm" height="297mm" version="1.1" style="shape-rendering:geometricPrecision; text-rendering:geometricPrecision; image-rendering:optimizeQuality; fill-rule:evenodd; clip-rule:evenodd"
viewBox="0 0 42000 29700"
 xmlns:xlink="http://www.w3.org/1999/xlink">
 <defs>
  <style type="text/css">
   <![CDATA[
    .str0 {stroke:#D64445;stroke-width:100}
    .fil14 {fill:none}
    .fil9 {fill:#2B2A29}
    .fil10 {fill:#040509}
    .fil15 {fill:#07579C}
    .fil4 {fill:#0B549C}
    .fil11 {fill:#0B56A2}
    .fil1 {fill:#1788AA}
    .fil3 {fill:#1A86AA}
    .fil7 {fill:#1A86AA}
    .fil8 {fill:#2F70B0}
    .fil13 {fill:#5E526A}
    .fil12 {fill:#7DD1F2}
    .fil6 {fill:#C7E7F7}
    .fil2 {fill:#CA2327}
    .fil5 {fill:#DB8929}
    .fil0 {fill:#DF3238}
   ]]>
  </style>
 </defs>
 <g id="Слой_x0020_1">
  <metadata id="CorelCorpID_0Corel-Layer"/>
  <path class="fil0" d="M18710 15163c-43,-120 -51,-213 -24,-277 -659,-235 -1002,-363 -1029,-386 -95,424 -82,801 37,1130 678,-311 1016,-467 1016,-467z"/>
  <path class="fil1" d="M20840 16025c177,129 310,281 538,345 929,640 3366,2046 4616,1422 1132,-565 -1488,-1764 -1996,-1822 -113,-19 -54,0 -159,-37 -107,-39 -179,-90 -304,-132 -454,-155 -1006,-161 -1508,-136 -222,35 -479,30 -727,76 -242,46 -556,53 -460,284z"/>
  <path class="fil2" d="M19525 13624c-367,29 -311,13 -581,146 -244,218 -355,507 -447,886 -478,442 -154,482 46,929 7,-196 37,-130 243,-63 100,-405 83,-603 -78,-954 -197,35 -175,94 -130,-58 74,-279 293,-696 639,-657 289,33 542,402 531,725l53 58c46,349 55,553 1,902 -19,21 -30,11 -52,33 -181,182 -331,640 -356,677 -626,126 -583,-240 -818,-470 269,1022 924,660 1853,700 45,-80 147,-199 213,-340 46,-98 98,-222 138,-376 74,-290 118,-631 103,-716l-9 -34 -11 -306 -28 -147c-29,-1241 -563,-829 -1310,-935z"/>
  <path class="fil1" d="M18497 14656c92,-379 203,-668 447,-886l-211 -136c-71,-38 -115,-43 -156,-113 255,-23 502,-31 738,25 -771,-457 -1115,-430 -1623,-338 -1408,256 689,1441 805,1448z"/>
  <path class="fil3" d="M22161 13831l557 394c226,-38 829,25 909,-69 -197,-126 35,-88 -63,-214l-174 -154c-136,-133 -412,-174 -638,-187 -274,-16 -552,-32 -591,230z"/>
  <path class="fil4" d="M24246 12464c-485,713 -413,1033 -1138,1871l-194 63 -591 -12c-69,131 22,91 -155,128 -55,12 -122,-6 -167,-21 -142,-48 -150,-92 -205,-186 -51,-109 -82,-171 -172,-274 -64,-74 -63,-58 -97,-101 -77,-95 -65,-56 -101,-179l-259 -33 -711 -49c219,249 336,403 379,888l28 147 12 343c-9,412 -94,846 -268,1155 -99,169 -92,75 -178,274l949 -108c-228,-64 -361,-216 -538,-345 -96,-231 218,-238 460,-284 248,-46 505,-41 727,-76 502,-25 1054,-19 1508,136 125,42 197,93 304,132 105,37 46,18 159,37l148 31c289,41 322,-539 349,-853 -110,-99 -409,-222 -551,-296 -237,-124 -366,-268 -582,-306 70,-209 -157,-104 225,-193 40,-9 248,-23 301,-25 229,-10 425,3 642,32l38 -232 216 -34 27 -115 40 -302c186,-540 64,-2155 -605,-1213z"/>
  <path class="fil5" d="M18708 14568c161,351 178,549 78,954 311,38 525,56 630,-233 55,-197 47,-318 10,-506 -132,-300 -345,-300 -718,-215z"/>
  <path class="fil6" d="M21167 13720l259 33c692,83 392,137 649,437l194 25 -108 -384c-145,-186 -121,-387 -412,-378 -139,5 -696,126 -582,267z"/>
  <path class="fil7" d="M24726 14445l58 -351 -216 34 -38 232c-217,-29 -413,-42 -642,-32 -53,2 -261,16 -301,25 -382,89 -155,-16 -225,193 216,38 345,182 582,306 142,74 441,197 551,296 664,165 660,286 1400,144 -55,-543 -637,-600 -1169,-847z"/>
  <path class="fil8" d="M21796 14307c55,94 63,138 205,186 45,15 112,33 167,21 177,-37 86,3 155,-128l-28 -21c-160,-37 -166,-11 -220,-175 -257,-300 43,-354 -649,-437 36,123 24,84 101,179 34,43 33,27 97,101 90,103 121,165 172,274z"/>
  <path class="fil9" d="M19426 14783c37,188 45,309 -10,506 -105,289 -319,271 -630,233l-183 -77c-29,13 -52,-71 -60,140l33 193c235,230 237,718 836,498 122,-44 300,-385 390,-738 143,-566 80,-1691 -585,-1685 -346,-39 -565,378 -639,657 -31,104 -52,107 -18,102 24,-4 79,-31 148,-44 373,-85 586,-85 718,215z"/>
  <path class="fil10" d="M22718 14225l-449 -10 26 150 28 21c484,95 1094,133 1135,-499l-196 48c-81,94 -318,252 -544,290z"/>
  <path class="fil11" d="M18944 13770c270,-133 214,-117 581,-146l-210 -78c-236,-56 -483,-48 -738,-25 41,70 85,75 156,113l211 136z"/>
  <polygon class="fil12" points="22269,14215 22718,14225 22161,13831 "/>
  <path class="fil13" d="M22295 14365l-26 -150 -194 -25c54,164 60,138 220,175z"/>
  <ellipse class="fil14 str0" cx="19077" cy="15042" rx="1456" ry="2630"/>
  <path class="fil0" d="M19416 15235c43,-120 51,-213 24,-277 659,-235 1002,-363 1029,-386 95,424 83,801 -37,1130 -677,-311 -1016,-467 -1016,-467z"/>
  <path class="fil7" d="M24811 13979c105,-572 144,-947 117,-1126 -67,-37 -131,-34 -192,12 -152,377 -213,744 -184,1100 80,23 166,28 259,14z"/>
  <path class="fil15" d="M25785 16812c-592,-402 -1163,-677 -1713,-827 -446,30 -670,45 -670,45 707,529 1367,859 1980,990 243,-2 377,-72 403,-208z"/>
 </g>
</svg>
