<?xml version="1.0" encoding="UTF-8"?>
<!DOCTYPE svg PUBLIC "-//W3C//DTD SVG 1.1//EN" "http://www.w3.org/Graphics/SVG/1.1/DTD/svg11.dtd">
<!-- Creator: CorelDRAW X8 -->
<svg xmlns="http://www.w3.org/2000/svg" xml:space="preserve" width="420mm" height="297mm" version="1.1" style="shape-rendering:geometricPrecision; text-rendering:geometricPrecision; image-rendering:optimizeQuality; fill-rule:evenodd; clip-rule:evenodd"
viewBox="0 0 42000 29700"
 xmlns:xlink="http://www.w3.org/1999/xlink">
 <defs>
  <style type="text/css">
   <![CDATA[
    .str3 {stroke:#CDCCCB;stroke-width:200}
    .str2 {stroke:#FEFEFE;stroke-width:150}
    .str1 {stroke:#9B9D9C;stroke-width:150}
    .str0 {stroke:#2B2A29;stroke-width:20}
    .fil14 {fill:none}
    .fil0 {fill:#2B2A29}
    .fil5 {fill:#066FB3}
    .fil2 {fill:#0673B3}
    .fil3 {fill:#1B191C}
    .fil16 {fill:#2194D7}
    .fil4 {fill:#2D8DDA}
    .fil8 {fill:#2D8DDA}
    .fil18 {fill:#34302F}
    .fil6 {fill:#343434}
    .fil7 {fill:#343434}
    .fil17 {fill:#6E6A69}
    .fil10 {fill:#9A4145}
    .fil12 {fill:#9E4547}
    .fil13 {fill:#F0D347}
    .fil15 {fill:#FC905F}
    .fil1 {fill:#FD9363}
    .fil9 {fill:#FF8F47}
    .fil11 {fill:#FF8F47}
   ]]>
  </style>
 </defs>
 <g id="Слой_x0020_1">
  <metadata id="CorelCorpID_0Corel-Layer"/>
  <g id="_2875464846976">
   <rect class="fil0" x="89150" y="14254" width="935" height="1305"/>
   <path class="fil0" d="M90179 17092l-335 0c-165,0 -300,-135 -300,-300l0 -1887 635 0 0 2187z"/>
   <path class="fil1" d="M88790 13978c-247,282 -258,760 -88,1088 189,363 381,470 752,594l209 -14 31 -141 -348 -104c-145,-78 -144,-920 -4,-1098 77,203 -28,155 124,362 251,2 175,-42 191,-333l7 -906c-369,91 -665,313 -874,552z"/>
   <polygon class="fil2" points="90496,6039 92770,6039 93299,5530 89963,5530 "/>
   <rect class="fil3" x="91895" y="15751" width="847" height="7620"/>
   <path class="fil4" d="M91152 9665l1622 0 0 4873 -3122 0 0 -3373c0,-825 675,-1500 1500,-1500z"/>
   <path class="fil5" d="M92300 9911l474 0 0 4609 -1561 0 0 -3041c0,-790 474,-1451 1087,-1568z"/>
   <path class="fil6" d="M90357 16196l2422 0 0 -2064 -3122 0 0 1364c0,385 315,700 700,700z"/>
   <path class="fil0 str0" d="M90343 10836c99,-596 511,-971 1234,-1126 -901,105 -1435,480 -1599,1126l-1 0 0 4 0 2904 366 -367 0 -2541z"/>
   <path class="fil7" d="M92372 9318l-1057 0c-194,0 -353,159 -353,353l0 0 1410 0 0 -353z"/>
   <path class="fil8" d="M92409 9318l-1023 0c-194,0 -352,159 -352,353l0 0 1375 0 0 -353z"/>
   <rect class="fil9" x="91200" y="6072" width="1570" height="3598"/>
   <path class="fil10" d="M91214 8833l0 -2628 1254 0 0 2128c0,275 -258,500 -572,500l-652 0c-10,0 -20,0 -30,0z"/>
   <path class="fil9" d="M91900 8690l-748 0c-360,0 -656,-295 -656,-656l0 -1972 2060 0 0 1972c0,361 -295,656 -656,656z"/>
   <path class="fil7" d="M92731 9323l-1070 0c-194,0 -353,158 -353,352l0 0 1423 0 0 -352z"/>
   <path class="fil8" d="M92768 9323l-1023 0c-194,0 -352,158 -352,352l0 0 1375 0 0 -352z"/>
   <ellipse class="fil11" cx="92770" cy="7193" rx="187" ry="271"/>
   <ellipse class="fil10" cx="92770" cy="7193" rx="122" ry="176"/>
   <rect class="fil10" x="91008" y="7876" width="679" height="150" rx="575" ry="500"/>
   <rect class="fil10" x="91224" y="8057" width="259.724" height="57.3438" rx="220" ry="191"/>
   <path class="fil0 str0" d="M91322 6875l801 0 0 206c0,221 -180,401 -401,401l0 0c-220,0 -400,-180 -400,-401l0 -206z"/>
   <path class="fil0 str0" d="M90342 6875l801 0 0 206c0,221 -180,401 -401,401l0 0c-220,0 -400,-180 -400,-401l0 -206z"/>
   <rect class="fil12" x="90496" y="6554" width="2273" height="212"/>
   <rect class="fil0" x="89769" y="6582" width="2064" height="106"/>
   <rect class="fil0" x="90496" y="6039" width="2274" height="528"/>
   <rect class="fil13" x="90455" y="6462" width="1493" height="106"/>
   <ellipse class="fil13" cx="92113" cy="6503" rx="93" ry="97"/>
   <path class="fil3" d="M92952 14391l554 0 0 4609c0,152 -124,277 -277,277l0 0c-152,0 -277,-125 -277,-277l0 -4609z"/>
   <circle class="fil14 str1" cx="92311" cy="15400" r="679"/>
   <path class="fil13" d="M90773 5920l340 0 0 346c0,94 -76,170 -170,170l0 0c-93,0 -170,-76 -170,-170l0 -346z"/>
   <rect class="fil0" x="89634" y="14133" width="4198" height="706"/>
   <circle class="fil14 str2" cx="92557" cy="15360" r="679"/>
   <path class="fil15" d="M92292 10881l1506 -542 1273 2475c258,504 38,1071 -490,1260l-70 25 -296 193c28,94 43,194 43,298 0,594 -490,1076 -1094,1076 -604,0 -1093,-482 -1093,-1076 0,-481 321,-888 763,-1026l628 -408 -1170 -2275z"/>
   <path class="fil16" d="M92577 9400l0 0c471,-205 1025,12 1231,483l487 1115 -1714 749 -487 -1116c-205,-471 12,-1025 483,-1231z"/>
   <path class="fil13" d="M92905 10226l468 -238 243 477c65,129 13,288 -116,353l0 0c-129,66 -287,14 -353,-115l-242 -477z"/>
   <path class="fil12" d="M94166 11055c189,367 283,551 283,551 0,0 -580,28 -1740,85 0,0 486,-212 1457,-636z"/>
   <path class="fil12" d="M94352 14198c-98,67 -147,101 -147,101 0,0 -30,-165 -88,-495 0,0 78,132 235,394z"/>
   <rect class="fil0 str3" x="89835" y="14231" width="679" height="734"/>
   <path class="fil7" d="M91173 14007l213 0c226,0 412,186 412,412l0 464c0,226 -186,412 -412,412l-213 0 0 -1288z"/>
   <path class="fil17" d="M91013 14007l213 0c227,0 413,186 413,413l0 462c0,227 -186,413 -413,413l-213 0 0 -1288z"/>
   <rect class="fil18" x="90167" y="15716" width="847" height="7620"/>
   <path class="fil3" d="M91013 16173c0,145 0,218 0,218 -423,-41 -705,-113 -846,-218 579,-17 861,-17 846,0z"/>
   <path class="fil18" d="M91018 23065l-1682 0c-220,0 -400,180 -400,400l0 200 2082 0 0 -600z"/>
   <path class="fil3" d="M92746 23061l-1681 0c-220,0 -400,180 -400,400l0 200 2081 0 0 -600z"/>
  </g>
 </g>
</svg>
